G04*
G04 #@! TF.GenerationSoftware,Altium Limited,Altium Designer,21.6.1 (37)*
G04*
G04 Layer_Physical_Order=1*
G04 Layer_Color=255*
%FSLAX44Y44*%
%MOMM*%
G71*
G04*
G04 #@! TF.SameCoordinates,468A8F93-C8C4-43A0-AE5F-35C49DAE4A20*
G04*
G04*
G04 #@! TF.FilePolarity,Positive*
G04*
G01*
G75*
%ADD15O,1.7800X0.3560*%
%ADD16R,1.7800X0.3560*%
%ADD17R,3.0000X3.1000*%
%ADD18R,1.3000X0.7000*%
%ADD19R,1.3000X0.9000*%
%ADD20R,1.6000X0.9000*%
%ADD21R,0.9000X1.3000*%
%ADD22R,0.4000X0.4000*%
%ADD23R,0.7000X1.3000*%
%ADD24R,1.3720X0.7100*%
%ADD25R,3.8500X4.5200*%
%ADD26R,3.3000X3.6000*%
%ADD27R,0.8000X2.6500*%
%ADD45C,0.3560*%
%ADD46C,0.8000*%
%ADD47C,0.4000*%
%ADD48C,1.0000*%
%ADD49C,1.7000*%
%ADD50C,0.9000*%
%ADD51C,0.5000*%
G36*
X377190Y601980D02*
X461010Y518160D01*
X480060D01*
X480414Y517806D01*
Y481330D01*
X445770D01*
X419100Y508000D01*
X401590D01*
Y508340D01*
X384590D01*
Y508000D01*
X344170D01*
Y511175D01*
Y613410D01*
X344805Y614045D01*
X351969D01*
X352290Y612816D01*
X350570Y611824D01*
X349166Y610420D01*
X348174Y608700D01*
X348064Y608290D01*
X362336D01*
X362226Y608700D01*
X361233Y610420D01*
X359830Y611824D01*
X358110Y612816D01*
X358431Y614045D01*
X377190D01*
X377190Y601980D01*
D02*
G37*
G36*
X567690Y643890D02*
X615682Y595898D01*
Y562610D01*
X570230D01*
X561340Y571500D01*
X520700D01*
X480060Y612140D01*
Y681990D01*
X567690D01*
Y643890D01*
D02*
G37*
G36*
X475615Y607060D02*
X513080Y569595D01*
Y522308D01*
X490220D01*
X488659Y521998D01*
X488618Y521970D01*
X481409D01*
X480060Y522238D01*
X480060Y522238D01*
X462699D01*
X381268Y603669D01*
X381268Y614045D01*
X380958Y615606D01*
X380074Y616929D01*
X378751Y617813D01*
X377190Y618123D01*
X358431D01*
X358155Y618068D01*
X357873Y618085D01*
X357381Y617915D01*
X356870Y617813D01*
X356636Y617656D01*
X356370Y617564D01*
X356083Y617310D01*
X355200Y617036D01*
X354317Y617310D01*
X354030Y617564D01*
X353764Y617656D01*
X353530Y617813D01*
X353019Y617915D01*
X352527Y618085D01*
X352245Y618068D01*
X351969Y618123D01*
X344805D01*
X344805Y618123D01*
X343244Y617813D01*
X341921Y616929D01*
X341286Y616294D01*
X341286Y616294D01*
X340402Y614971D01*
X340092Y613410D01*
X340092Y613410D01*
Y518030D01*
X314390D01*
Y517770D01*
X294300D01*
Y500770D01*
X315300D01*
Y501030D01*
X348726D01*
X349250Y500961D01*
X349774Y501030D01*
X360502D01*
X361028Y499760D01*
X360559Y499291D01*
X359703Y497809D01*
X359260Y496156D01*
Y494444D01*
X359703Y492791D01*
X359867Y492507D01*
Y482290D01*
X359990Y481670D01*
Y476000D01*
X371475D01*
Y474673D01*
X334725D01*
X332469Y474225D01*
X330558Y472947D01*
X323242Y465632D01*
X321965Y463720D01*
X321516Y461465D01*
Y456150D01*
X316909D01*
Y442691D01*
X271780D01*
X271145Y443860D01*
Y444500D01*
Y681990D01*
X475615D01*
Y607060D01*
D02*
G37*
G36*
X614680Y440690D02*
X558800D01*
X532398Y414288D01*
X501348D01*
Y420614D01*
X501230Y421205D01*
Y424074D01*
X500134D01*
X499556Y424939D01*
X497571Y426265D01*
X495230Y426731D01*
X492889Y426265D01*
X490904Y424939D01*
X490326Y424074D01*
X489230D01*
Y421205D01*
X489113Y420614D01*
Y414288D01*
X484360D01*
X483011Y414020D01*
X470709D01*
X469360Y414288D01*
X465360D01*
Y430870D01*
X464820D01*
Y447040D01*
X477294D01*
X477399Y446859D01*
X478609Y445649D01*
X480091Y444793D01*
X481744Y444350D01*
X483456D01*
X484883Y444733D01*
X495230D01*
X495821Y444850D01*
X501230D01*
Y450259D01*
X501348Y450850D01*
X501230Y451441D01*
Y456850D01*
X502166Y457657D01*
X511093D01*
X512230Y456520D01*
Y444850D01*
X519210D01*
Y440350D01*
X536210D01*
Y461350D01*
X523514D01*
X522397Y463022D01*
X517702Y467717D01*
X515790Y468995D01*
X513535Y469443D01*
X490220D01*
Y518230D01*
X517280D01*
Y556260D01*
X614680D01*
Y440690D01*
D02*
G37*
G36*
X421003Y484507D02*
Y479447D01*
X419725Y477535D01*
X419277Y475280D01*
X419725Y473025D01*
X420390Y472030D01*
X419725Y471035D01*
X419277Y468780D01*
X419725Y466525D01*
X420390Y465530D01*
X419725Y464535D01*
X419277Y462280D01*
X419725Y460025D01*
X420390Y459030D01*
X419725Y458035D01*
X419277Y455780D01*
X419725Y453525D01*
X421003Y451613D01*
Y446947D01*
X419725Y445035D01*
X419277Y442780D01*
X419725Y440525D01*
X421003Y438613D01*
X422915Y437335D01*
X425170Y436887D01*
X448859D01*
X450549Y435197D01*
Y430870D01*
X450360D01*
Y409870D01*
X465360D01*
Y410210D01*
X469360D01*
Y409870D01*
X484360D01*
Y410210D01*
X538046D01*
X561440Y435610D01*
X657860D01*
Y402711D01*
X645779Y390630D01*
X644780D01*
Y389890D01*
X589660D01*
Y390630D01*
X573660D01*
Y389890D01*
X474980D01*
Y370205D01*
X458130D01*
Y369338D01*
X451863D01*
X450436Y369720D01*
X448724D01*
X447071Y369277D01*
X445589Y368421D01*
X444379Y367211D01*
X443523Y365729D01*
X443080Y364076D01*
Y362364D01*
X443523Y360711D01*
X444379Y359229D01*
X445589Y358019D01*
X447071Y357163D01*
X448724Y356720D01*
X450436D01*
X451863Y357103D01*
X458130D01*
Y355205D01*
X474980D01*
Y330200D01*
X271780D01*
Y438613D01*
X361603D01*
X362832Y437791D01*
X362926Y436838D01*
X362071Y435356D01*
X361628Y433703D01*
Y431991D01*
X362071Y430338D01*
X362926Y428856D01*
X364137Y427646D01*
X365619Y426790D01*
X367272Y426347D01*
X368983D01*
X370636Y426790D01*
X372119Y427646D01*
X373329Y428856D01*
X374185Y430338D01*
X374260Y430620D01*
X377706Y434066D01*
X379032Y436051D01*
X379198Y436887D01*
X380010D01*
X382265Y437335D01*
X384177Y438613D01*
X385455Y440525D01*
X385903Y442780D01*
X385455Y445035D01*
X384790Y446030D01*
X385455Y447025D01*
X385903Y449280D01*
X385455Y451535D01*
X384177Y453447D01*
X382265Y454725D01*
X380010Y455173D01*
Y456387D01*
X382265Y456835D01*
X384177Y458113D01*
X385455Y460025D01*
X385903Y462280D01*
X385455Y464535D01*
X384790Y465530D01*
X385455Y466525D01*
X385903Y468780D01*
X385455Y471035D01*
X384790Y472030D01*
X385455Y473025D01*
X385794Y474732D01*
X385903Y475280D01*
X385790Y476000D01*
X385790D01*
Y485140D01*
X420370D01*
X421003Y484507D01*
D02*
G37*
G36*
X709930Y330200D02*
X479058D01*
Y336205D01*
X479130D01*
Y351205D01*
X479058D01*
Y355150D01*
X498180D01*
Y355330D01*
X517230D01*
Y372330D01*
X496230D01*
Y370150D01*
X479130D01*
Y370205D01*
X479058D01*
Y385812D01*
X573660D01*
X575221Y386122D01*
X575864Y386552D01*
X587456D01*
X588099Y386122D01*
X589660Y385812D01*
X644780D01*
X646341Y386122D01*
X647589Y386956D01*
X649846D01*
X661670Y398780D01*
Y401362D01*
X661679Y401410D01*
X661938Y402711D01*
X661938Y402712D01*
Y435610D01*
X661670Y436959D01*
Y439420D01*
X659209D01*
X657860Y439688D01*
X619760D01*
Y598170D01*
X574040Y643890D01*
Y681990D01*
X709930D01*
Y330200D01*
D02*
G37*
%LPC*%
G36*
X362336Y603290D02*
X357700D01*
Y598654D01*
X358110Y598764D01*
X359830Y599757D01*
X361233Y601160D01*
X362226Y602880D01*
X362336Y603290D01*
D02*
G37*
G36*
X352700D02*
X348064D01*
X348174Y602880D01*
X349166Y601160D01*
X350570Y599757D01*
X352290Y598764D01*
X352700Y598654D01*
Y603290D01*
D02*
G37*
G36*
X577810Y627980D02*
Y619720D01*
X586070D01*
X585598Y621481D01*
X584144Y623999D01*
X582089Y626054D01*
X579571Y627508D01*
X577810Y627980D01*
D02*
G37*
G36*
X572810D02*
X571049Y627508D01*
X568531Y626054D01*
X566476Y623999D01*
X565022Y621481D01*
X564550Y619720D01*
X572810D01*
Y627980D01*
D02*
G37*
G36*
X502880D02*
Y619720D01*
X511140D01*
X510668Y621481D01*
X509214Y623999D01*
X507159Y626054D01*
X504641Y627508D01*
X502880Y627980D01*
D02*
G37*
G36*
X497880D02*
X496119Y627508D01*
X493601Y626054D01*
X491546Y623999D01*
X490092Y621481D01*
X489620Y619720D01*
X497880D01*
Y627980D01*
D02*
G37*
G36*
X586070Y614720D02*
X577810D01*
Y606460D01*
X579571Y606932D01*
X582089Y608386D01*
X584144Y610441D01*
X585598Y612959D01*
X586070Y614720D01*
D02*
G37*
G36*
X572810D02*
X564550D01*
X565022Y612959D01*
X566476Y610441D01*
X568531Y608386D01*
X571049Y606932D01*
X572810Y606460D01*
Y614720D01*
D02*
G37*
G36*
X511140D02*
X502880D01*
Y606460D01*
X504641Y606932D01*
X507159Y608386D01*
X509214Y610441D01*
X510668Y612959D01*
X511140Y614720D01*
D02*
G37*
G36*
X497880D02*
X489620D01*
X490092Y612959D01*
X491546Y610441D01*
X493601Y608386D01*
X496119Y606932D01*
X497880Y606460D01*
Y614720D01*
D02*
G37*
G36*
X452080Y627980D02*
Y619720D01*
X460340D01*
X459868Y621481D01*
X458414Y623999D01*
X456359Y626054D01*
X453841Y627508D01*
X452080Y627980D01*
D02*
G37*
G36*
X447080D02*
X445319Y627508D01*
X442801Y626054D01*
X440746Y623999D01*
X439292Y621481D01*
X438820Y619720D01*
X447080D01*
Y627980D01*
D02*
G37*
G36*
X307700Y612926D02*
Y608290D01*
X312336D01*
X312226Y608700D01*
X311234Y610420D01*
X309830Y611824D01*
X308110Y612816D01*
X307700Y612926D01*
D02*
G37*
G36*
X302700D02*
X302290Y612816D01*
X300570Y611824D01*
X299167Y610420D01*
X298174Y608700D01*
X298064Y608290D01*
X302700D01*
Y612926D01*
D02*
G37*
G36*
X460340Y614720D02*
X452080D01*
Y606460D01*
X453841Y606932D01*
X456359Y608386D01*
X458414Y610441D01*
X459868Y612959D01*
X460340Y614720D01*
D02*
G37*
G36*
X447080D02*
X438820D01*
X439292Y612959D01*
X440746Y610441D01*
X442801Y608386D01*
X445319Y606932D01*
X447080Y606460D01*
Y614720D01*
D02*
G37*
G36*
X312336Y603290D02*
X307700D01*
Y598654D01*
X308110Y598764D01*
X309830Y599757D01*
X311234Y601160D01*
X312226Y602880D01*
X312336Y603290D01*
D02*
G37*
G36*
X302700D02*
X298064D01*
X298174Y602880D01*
X299167Y601160D01*
X300570Y599757D01*
X302290Y598764D01*
X302700Y598654D01*
Y603290D01*
D02*
G37*
G36*
X315300Y435013D02*
X294300D01*
Y420013D01*
X298682D01*
Y415033D01*
X298300Y413606D01*
Y411894D01*
X298743Y410241D01*
X299599Y408759D01*
X300809Y407549D01*
X302291Y406693D01*
X303944Y406250D01*
X305656D01*
X307309Y406693D01*
X308791Y407549D01*
X310001Y408759D01*
X310857Y410241D01*
X311300Y411894D01*
Y413606D01*
X310917Y415033D01*
Y420013D01*
X315300D01*
Y435013D01*
D02*
G37*
G36*
X628610Y627980D02*
Y619720D01*
X636870D01*
X636398Y621481D01*
X634944Y623999D01*
X632889Y626054D01*
X630371Y627508D01*
X628610Y627980D01*
D02*
G37*
G36*
X623610D02*
X621849Y627508D01*
X619331Y626054D01*
X617276Y623999D01*
X615822Y621481D01*
X615350Y619720D01*
X623610D01*
Y627980D01*
D02*
G37*
G36*
X636870Y614720D02*
X628610D01*
Y606460D01*
X630371Y606932D01*
X632889Y608386D01*
X634944Y610441D01*
X636398Y612959D01*
X636870Y614720D01*
D02*
G37*
G36*
X623610D02*
X615350D01*
X615822Y612959D01*
X617276Y610441D01*
X619331Y608386D01*
X621849Y606932D01*
X623610Y606460D01*
Y614720D01*
D02*
G37*
%LPD*%
D15*
X372890Y442780D02*
D03*
Y455780D02*
D03*
Y449280D02*
D03*
Y475280D02*
D03*
Y462280D02*
D03*
Y468780D02*
D03*
X432290Y462280D02*
D03*
Y442780D02*
D03*
Y455780D02*
D03*
Y449280D02*
D03*
Y475280D02*
D03*
Y468780D02*
D03*
Y481780D02*
D03*
D16*
X372890D02*
D03*
D17*
X402590Y462280D02*
D03*
D18*
X304800Y427513D02*
D03*
Y446513D02*
D03*
X487680Y362650D02*
D03*
Y343650D02*
D03*
X468630Y362705D02*
D03*
Y343705D02*
D03*
D19*
X327409Y428650D02*
D03*
Y447650D02*
D03*
X347980Y428650D02*
D03*
Y447650D02*
D03*
X304800Y490270D02*
D03*
Y509270D02*
D03*
X506730Y363830D02*
D03*
Y344830D02*
D03*
D20*
X349250Y478530D02*
D03*
Y509530D02*
D03*
X326390Y478530D02*
D03*
Y509530D02*
D03*
D21*
X412090Y497840D02*
D03*
X393090D02*
D03*
X527710Y450850D02*
D03*
X546710D02*
D03*
D22*
X495230Y418074D02*
D03*
X518230D02*
D03*
Y450850D02*
D03*
X495230D02*
D03*
D23*
X457860Y420370D02*
D03*
X476860D02*
D03*
D24*
X531765Y497840D02*
D03*
Y485140D02*
D03*
X531495Y510540D02*
D03*
X531765Y472440D02*
D03*
X474075Y485140D02*
D03*
Y510540D02*
D03*
Y497840D02*
D03*
Y472440D02*
D03*
X531500Y551180D02*
D03*
Y538480D02*
D03*
Y563880D02*
D03*
Y525780D02*
D03*
X473810Y538480D02*
D03*
Y563880D02*
D03*
Y551180D02*
D03*
X474080Y525780D02*
D03*
D25*
X511545Y491490D02*
D03*
X494030Y544830D02*
D03*
D26*
X667670Y504190D02*
D03*
X592170D02*
D03*
D27*
X652780Y421640D02*
D03*
Y373380D02*
D03*
X581660Y421640D02*
D03*
Y373380D02*
D03*
D45*
X432290Y442780D02*
X451300D01*
X457860Y420370D02*
Y436220D01*
X451300Y442780D02*
X457860Y436220D01*
X383540Y500380D02*
X393090D01*
X465480Y363220D02*
X487110D01*
X413385Y473075D02*
X415810Y475500D01*
X458494Y462140D02*
X461174Y459460D01*
X441285Y462280D02*
X441425Y462140D01*
X458494D01*
X432290Y462280D02*
X441285D01*
X439420Y475420D02*
X463202D01*
X464412Y474210D01*
X472305D02*
X474075Y472440D01*
X432290Y468780D02*
X460848D01*
X464412Y474210D02*
X472305D01*
X455859Y455780D02*
X476860Y434779D01*
X432290Y455780D02*
X455859D01*
X461174Y459460D02*
X461189D01*
X476860Y423370D02*
Y434779D01*
X334725Y468780D02*
X372890D01*
X327409Y461465D02*
X334725Y468780D01*
X466093Y463550D02*
X513535D01*
X465333Y464310D02*
X466093Y463550D01*
X513535D02*
X518230Y458855D01*
X465318Y464310D02*
X465333D01*
X460848Y468780D02*
X465318Y464310D01*
X461189Y459460D02*
X465379Y455270D01*
X473710D01*
X518230Y452120D02*
Y458855D01*
Y450850D02*
X527710D01*
X342060Y475280D02*
X365760D01*
X413346Y473036D02*
X413385Y473075D01*
X414020D01*
X413306D02*
X413385D01*
X395455Y455780D02*
X396090D01*
X372890D02*
X395455D01*
X389370Y449060D02*
X391478Y451167D01*
X327409Y427247D02*
X349250D01*
X353060Y459740D02*
X353471D01*
X356011Y462280D01*
X372890D01*
X327409Y449580D02*
Y461465D01*
X402590Y462280D02*
X403590Y463280D01*
X406400Y462280D02*
X414280Y454400D01*
Y451745D02*
Y454400D01*
X402590Y462280D02*
X406400D01*
X414020Y451485D02*
X414280Y451745D01*
X416128Y450742D02*
X417590Y449280D01*
X403551Y463319D02*
X413306Y473075D01*
X415810Y475500D02*
Y479540D01*
X417590Y449280D02*
X432290D01*
X396090Y455780D02*
X402590Y462280D01*
X391160Y451485D02*
X395455Y455780D01*
X349250Y427247D02*
X351970Y424527D01*
X372449D01*
X389370Y441449D01*
X488860Y363830D02*
X506730D01*
X487680Y362650D02*
X488860Y363830D01*
X487110Y363220D02*
X487680Y362650D01*
X399004Y462371D02*
X399095Y462280D01*
X396090Y455780D02*
Y459457D01*
X399004Y462371D01*
X415810Y479540D02*
X418050Y481780D01*
X399095Y462280D02*
X402590D01*
X418050Y481780D02*
X432290D01*
X476860Y420370D02*
Y423370D01*
X379730Y496570D02*
X383540Y500380D01*
X379730Y482600D02*
Y496570D01*
X348280Y449280D02*
X372890D01*
X347980Y449580D02*
X348280Y449280D01*
X389370Y441449D02*
Y449060D01*
X365760Y482290D02*
Y495300D01*
D46*
X429449Y510540D02*
X474075D01*
X412090Y483210D02*
Y497840D01*
X410210Y481330D02*
X412090Y483210D01*
X428849Y511140D02*
X429449Y510540D01*
X365760Y509270D02*
X369570Y513080D01*
X349250Y509030D02*
X349490Y509270D01*
X326390Y509530D02*
X349250D01*
X304800Y509270D02*
X304930Y509400D01*
X326260D01*
X326390Y509530D01*
X349490Y509270D02*
X365760D01*
X474075Y497840D02*
Y510540D01*
Y485140D02*
Y497840D01*
D47*
X482871Y450850D02*
X495230D01*
Y407914D02*
Y420614D01*
X306680Y491490D02*
X327660D01*
X304800Y489610D02*
X306680Y491490D01*
X327660D02*
X339090Y480060D01*
X581660Y421640D02*
X646430D01*
X571500D02*
X581660D01*
X683260Y419460D02*
Y445770D01*
X579120Y374650D02*
X647700D01*
Y383900D02*
X683260Y419460D01*
X654960Y474070D02*
X683260Y445770D01*
X475827Y563880D02*
X476250Y563457D01*
X487154Y551180D02*
Y552553D01*
X461010Y565150D02*
X473810D01*
X284410Y487680D02*
X304800D01*
X281940Y504120D02*
X300920Y485140D01*
X305200Y579520D02*
Y605790D01*
X473810Y563880D02*
X475827D01*
X487154Y551180D02*
X487680D01*
X414020Y451485D02*
X415446Y450059D01*
Y449424D02*
Y450059D01*
X515620Y497840D02*
X516890Y496570D01*
X515620Y497840D02*
Y500590D01*
X515197Y494877D02*
X516890Y496570D01*
X515620Y500590D02*
X521760Y506730D01*
X525780Y474980D02*
X525915D01*
X525780D02*
X527050Y476250D01*
Y506730D02*
X527050Y506730D01*
X521760Y506730D02*
X527050D01*
X525915Y474980D02*
X527118Y473778D01*
X520132Y478088D02*
X525212D01*
X527118Y471102D02*
Y473778D01*
X527050Y506730D02*
X531495D01*
X527118Y471102D02*
X529590Y468630D01*
X525212Y478088D02*
X527050Y476250D01*
X531495Y506730D02*
Y510540D01*
Y506730D02*
X585470D01*
X647700Y374650D02*
X650240D01*
X575310D02*
X579120D01*
X368128Y433139D02*
X373380Y438392D01*
X368128Y432847D02*
Y433139D01*
X373380Y438392D02*
Y442560D01*
X449872Y363220D02*
X465480D01*
X579120Y374650D02*
X647700D01*
X654960Y504190D02*
Y574400D01*
X281940Y556260D02*
X305200Y579520D01*
X281940Y504120D02*
Y556260D01*
X530345Y525780D02*
X531500D01*
X528795Y524230D02*
X530345Y525780D01*
X528795Y512090D02*
Y524230D01*
X585470Y506730D02*
X591177Y501023D01*
X532130Y538480D02*
Y552325D01*
X531765Y469900D02*
X537410Y464255D01*
X531057Y427990D02*
X537410Y434343D01*
X654960Y474070D02*
Y504190D01*
X436880Y363220D02*
Y383540D01*
Y363220D02*
X447650Y352450D01*
X468630D01*
X304800Y489610D02*
X306444D01*
X412750Y393700D02*
Y433025D01*
X435565Y410210D01*
X412750Y433025D02*
Y448310D01*
X429260Y391160D02*
X436880Y383540D01*
X304800Y412750D02*
Y427513D01*
X475325Y485140D02*
X476875Y486690D01*
X474075Y485140D02*
X475325D01*
X519430Y427990D02*
X531057D01*
X491635D02*
X492015Y428370D01*
X481480Y427990D02*
X491635D01*
X492015Y428370D02*
X519050D01*
X519430Y427990D01*
X647700Y422910D02*
Y432160D01*
X531500Y563880D02*
X556260D01*
X449580Y576580D02*
X461010Y565150D01*
X531500Y525780D02*
Y538480D01*
X561340Y411480D02*
X571500Y421640D01*
X647700Y374650D02*
Y383900D01*
X574040Y373380D02*
X575310Y374650D01*
X500380Y617220D02*
X575310D01*
X623570Y605790D02*
Y614680D01*
X626110Y617220D01*
X449580Y576580D02*
Y617220D01*
X519500Y420370D02*
Y427920D01*
X519430Y427990D02*
X519500Y427920D01*
X476860Y423370D02*
X481480Y427990D01*
X623570Y605790D02*
X654960Y574400D01*
X646430Y421640D02*
X647700Y422910D01*
D48*
X355200Y605790D02*
D03*
X305200D02*
D03*
D49*
X626110Y617220D02*
D03*
X575310D02*
D03*
X500380D02*
D03*
X449580D02*
D03*
D50*
X355256Y594360D02*
D03*
X369570D02*
D03*
Y605846D02*
D03*
D51*
X482600Y450850D02*
D03*
X473710Y455270D02*
D03*
X508000Y526463D02*
D03*
Y563880D02*
D03*
X497417Y526463D02*
D03*
Y538935D02*
D03*
X486833D02*
D03*
X476250D02*
D03*
X508000D02*
D03*
X497417Y551408D02*
D03*
X486833D02*
D03*
X476250D02*
D03*
X508000D02*
D03*
X486833Y563880D02*
D03*
X497417D02*
D03*
X476250D02*
D03*
Y526463D02*
D03*
X486833D02*
D03*
X353060Y459740D02*
D03*
X402590Y451485D02*
D03*
Y473075D02*
D03*
Y462280D02*
D03*
X414020Y473075D02*
D03*
Y451485D02*
D03*
Y462280D02*
D03*
X391160Y451485D02*
D03*
Y473075D02*
D03*
Y462280D02*
D03*
X516890Y476250D02*
D03*
Y506730D02*
D03*
Y496570D02*
D03*
Y486410D02*
D03*
X527050Y476250D02*
D03*
Y506730D02*
D03*
Y486410D02*
D03*
Y496570D02*
D03*
X496570Y506730D02*
D03*
Y486410D02*
D03*
Y476250D02*
D03*
Y496570D02*
D03*
X368128Y432847D02*
D03*
X449580Y363220D02*
D03*
X506730Y476250D02*
D03*
Y496570D02*
D03*
Y486410D02*
D03*
Y506730D02*
D03*
X304800Y412750D02*
D03*
X556260Y563880D02*
D03*
X365760Y495300D02*
D03*
M02*
