G04*
G04 #@! TF.GenerationSoftware,Altium Limited,Altium Designer,21.6.1 (37)*
G04*
G04 Layer_Color=8421504*
%FSLAX44Y44*%
%MOMM*%
G71*
G04*
G04 #@! TF.SameCoordinates,468A8F93-C8C4-43A0-AE5F-35C49DAE4A20*
G04*
G04*
G04 #@! TF.FilePolarity,Positive*
G04*
G01*
G75*
%ADD15O,1.7800X0.3560*%
%ADD16R,1.7800X0.3560*%
%ADD17R,3.0000X3.1000*%
%ADD18R,1.3000X0.7000*%
%ADD19R,1.3000X0.9000*%
%ADD20R,1.6000X0.9000*%
%ADD21R,0.9000X1.3000*%
%ADD22R,0.4000X0.4000*%
%ADD23R,0.7000X1.3000*%
%ADD24R,1.3720X0.7100*%
%ADD25R,3.8500X4.5200*%
%ADD26R,3.3000X3.6000*%
%ADD27R,0.8000X2.6500*%
D15*
X372890Y442780D02*
D03*
Y455780D02*
D03*
Y449280D02*
D03*
Y475280D02*
D03*
Y462280D02*
D03*
Y468780D02*
D03*
X432290Y462280D02*
D03*
Y442780D02*
D03*
Y455780D02*
D03*
Y449280D02*
D03*
Y475280D02*
D03*
Y468780D02*
D03*
Y481780D02*
D03*
D16*
X372890D02*
D03*
D17*
X402590Y462280D02*
D03*
D18*
X304800Y427513D02*
D03*
Y446513D02*
D03*
X487680Y362650D02*
D03*
Y343650D02*
D03*
X468630Y362705D02*
D03*
Y343705D02*
D03*
D19*
X327409Y428650D02*
D03*
Y447650D02*
D03*
X347980Y428650D02*
D03*
Y447650D02*
D03*
X304800Y490270D02*
D03*
Y509270D02*
D03*
X506730Y363830D02*
D03*
Y344830D02*
D03*
D20*
X349250Y478530D02*
D03*
Y509530D02*
D03*
X326390Y478530D02*
D03*
Y509530D02*
D03*
D21*
X412090Y497840D02*
D03*
X393090D02*
D03*
X527710Y450850D02*
D03*
X546710D02*
D03*
D22*
X495230Y418074D02*
D03*
X518230D02*
D03*
Y450850D02*
D03*
X495230D02*
D03*
D23*
X457860Y420370D02*
D03*
X476860D02*
D03*
D24*
X531765Y497840D02*
D03*
Y485140D02*
D03*
X531495Y510540D02*
D03*
X531765Y472440D02*
D03*
X474075Y485140D02*
D03*
Y510540D02*
D03*
Y497840D02*
D03*
Y472440D02*
D03*
X531500Y551180D02*
D03*
Y538480D02*
D03*
Y563880D02*
D03*
Y525780D02*
D03*
X473810Y538480D02*
D03*
Y563880D02*
D03*
Y551180D02*
D03*
X474080Y525780D02*
D03*
D25*
X511545Y491490D02*
D03*
X494030Y544830D02*
D03*
D26*
X667670Y504190D02*
D03*
X592170D02*
D03*
D27*
X652780Y421640D02*
D03*
Y373380D02*
D03*
X581660Y421640D02*
D03*
Y373380D02*
D03*
M02*
