G04*
G04 #@! TF.GenerationSoftware,Altium Limited,Altium Designer,21.6.1 (37)*
G04*
G04 Layer_Physical_Order=2*
G04 Layer_Color=16711680*
%FSLAX44Y44*%
%MOMM*%
G71*
G04*
G04 #@! TF.SameCoordinates,468A8F93-C8C4-43A0-AE5F-35C49DAE4A20*
G04*
G04*
G04 #@! TF.FilePolarity,Positive*
G04*
G01*
G75*
%ADD47C,0.4000*%
%ADD48C,1.0000*%
%ADD49C,1.7000*%
%ADD50C,0.9000*%
%ADD51C,0.5000*%
%ADD52C,1.0000*%
G36*
X405809Y680817D02*
X341286Y616294D01*
X340402Y614971D01*
X340092Y613410D01*
X340092Y613410D01*
X340092Y585470D01*
X340402Y583909D01*
X341286Y582586D01*
X342609Y581702D01*
X344170Y581392D01*
X377190D01*
X378751Y581702D01*
X380074Y582586D01*
X380958Y583909D01*
X381268Y585470D01*
Y587591D01*
X448729Y655052D01*
X475615D01*
Y611445D01*
X510540Y572901D01*
Y523558D01*
X492040D01*
X489699Y523092D01*
X487715Y521766D01*
X484109Y518160D01*
X393065D01*
X390293Y515387D01*
X379730D01*
X377389Y514922D01*
X375404Y513596D01*
X363049Y501240D01*
X361769Y500501D01*
X360559Y499291D01*
X359703Y497809D01*
X359260Y496156D01*
Y494444D01*
X359703Y492791D01*
X360559Y491309D01*
X361769Y490099D01*
X363251Y489243D01*
X364904Y488800D01*
X366616D01*
X368269Y489243D01*
X369751Y490099D01*
X370205Y490553D01*
X371475Y490027D01*
Y471170D01*
X346075D01*
X330835Y455930D01*
Y441960D01*
X271145D01*
Y444500D01*
Y681990D01*
X405323D01*
X405809Y680817D01*
D02*
G37*
G36*
X609600Y554990D02*
X609600Y440690D01*
X558800D01*
X534670Y416560D01*
X466090Y416560D01*
X464820Y417830D01*
Y441894D01*
X466090Y442293D01*
X467848Y441118D01*
X470189Y440653D01*
X478249D01*
X480591Y441118D01*
X482575Y442444D01*
X484856Y444725D01*
X485109Y444793D01*
X486591Y445649D01*
X487801Y446859D01*
X487906Y447040D01*
X490220D01*
Y506968D01*
X494574Y511323D01*
X513630D01*
X515971Y511788D01*
X517956Y513115D01*
X520998Y516156D01*
X522324Y518141D01*
X522790Y520482D01*
Y556260D01*
X608482D01*
X609600Y554990D01*
D02*
G37*
G36*
X350643Y465822D02*
X350551Y465797D01*
X349069Y464941D01*
X347859Y463731D01*
X347003Y462249D01*
X346560Y460596D01*
Y458884D01*
X347003Y457231D01*
X347859Y455749D01*
X349069Y454539D01*
X350551Y453683D01*
X352204Y453240D01*
X353916D01*
X355343Y453623D01*
X356611D01*
X369787Y440447D01*
X369129Y439308D01*
X368983Y439347D01*
X367272D01*
X365845Y438965D01*
X335172D01*
X334493Y440235D01*
X334603Y440399D01*
X334913Y441960D01*
Y454241D01*
X347764Y467092D01*
X350476D01*
X350643Y465822D01*
D02*
G37*
G36*
X709930Y330200D02*
X271780D01*
Y437882D01*
X319293D01*
X319819Y436612D01*
X301637Y418429D01*
X300809Y417951D01*
X299599Y416741D01*
X298743Y415259D01*
X298300Y413606D01*
Y411894D01*
X298743Y410241D01*
X299599Y408759D01*
X300809Y407549D01*
X302291Y406693D01*
X303944Y406250D01*
X305656D01*
X307309Y406693D01*
X308791Y407549D01*
X310001Y408759D01*
X310857Y410241D01*
X310896Y410385D01*
X327240Y426730D01*
X365845D01*
X367272Y426347D01*
X368983D01*
X370636Y426790D01*
X372119Y427646D01*
X373329Y428856D01*
X374185Y430338D01*
X374628Y431991D01*
Y433703D01*
X374589Y433849D01*
X375727Y434506D01*
X443462Y366771D01*
Y365503D01*
X443080Y364076D01*
Y362364D01*
X443523Y360711D01*
X444379Y359229D01*
X445589Y358019D01*
X447071Y357163D01*
X448724Y356720D01*
X450436D01*
X452089Y357163D01*
X453571Y358019D01*
X454781Y359229D01*
X455637Y360711D01*
X456080Y362364D01*
Y364076D01*
X455698Y365503D01*
Y369305D01*
X455232Y371646D01*
X453906Y373630D01*
X379856Y447680D01*
X379856Y447680D01*
X363470Y464066D01*
X361486Y465392D01*
X359325Y465822D01*
X359450Y467092D01*
X371475D01*
X373036Y467402D01*
X374359Y468286D01*
X374589Y468630D01*
X378460D01*
X379730Y469900D01*
Y491490D01*
X391393Y503153D01*
X457753D01*
X459053Y501853D01*
Y451789D01*
X459518Y449448D01*
X460844Y447463D01*
X461268Y447040D01*
X461010Y445770D01*
X461010D01*
Y443243D01*
X460931Y442848D01*
X460757Y442254D01*
X460777Y442073D01*
X460742Y441894D01*
Y417830D01*
X460742Y417830D01*
X461010Y416481D01*
Y411480D01*
X537210D01*
X561340Y435610D01*
X613410D01*
Y439341D01*
X613678Y440690D01*
X613678Y554990D01*
X613548Y555645D01*
X613460Y556307D01*
X613410Y556393D01*
Y562610D01*
X570230D01*
X561340Y571500D01*
X518160D01*
X492865Y598481D01*
X480060Y612613D01*
Y659130D01*
X447040D01*
X377190Y589280D01*
Y585470D01*
X344170D01*
X344170Y613410D01*
X412750Y681990D01*
X709930D01*
Y330200D01*
D02*
G37*
%LPC*%
G36*
X452080Y627980D02*
Y619720D01*
X460340D01*
X459868Y621481D01*
X458414Y623999D01*
X456359Y626054D01*
X453841Y627508D01*
X452080Y627980D01*
D02*
G37*
G36*
X447080D02*
X445319Y627508D01*
X442801Y626054D01*
X440746Y623999D01*
X439292Y621481D01*
X438820Y619720D01*
X447080D01*
Y627980D01*
D02*
G37*
G36*
X307700Y612926D02*
Y608290D01*
X312336D01*
X312226Y608700D01*
X311234Y610420D01*
X309830Y611824D01*
X308110Y612816D01*
X307700Y612926D01*
D02*
G37*
G36*
X302700D02*
X302290Y612816D01*
X300570Y611824D01*
X299167Y610420D01*
X298174Y608700D01*
X298064Y608290D01*
X302700D01*
Y612926D01*
D02*
G37*
G36*
X460340Y614720D02*
X452080D01*
Y606460D01*
X453841Y606932D01*
X456359Y608386D01*
X458414Y610441D01*
X459868Y612959D01*
X460340Y614720D01*
D02*
G37*
G36*
X447080D02*
X438820D01*
X439292Y612959D01*
X440746Y610441D01*
X442801Y608386D01*
X445319Y606932D01*
X447080Y606460D01*
Y614720D01*
D02*
G37*
G36*
X312336Y603290D02*
X307700D01*
Y598654D01*
X308110Y598764D01*
X309830Y599757D01*
X311234Y601160D01*
X312226Y602880D01*
X312336Y603290D01*
D02*
G37*
G36*
X302700D02*
X298064D01*
X298174Y602880D01*
X299167Y601160D01*
X300570Y599757D01*
X302290Y598764D01*
X302700Y598654D01*
Y603290D01*
D02*
G37*
G36*
X577810Y627980D02*
Y619720D01*
X586070D01*
X585598Y621481D01*
X584144Y623999D01*
X582089Y626054D01*
X579571Y627508D01*
X577810Y627980D01*
D02*
G37*
G36*
X572810D02*
X571049Y627508D01*
X568531Y626054D01*
X566476Y623999D01*
X565022Y621481D01*
X564550Y619720D01*
X572810D01*
Y627980D01*
D02*
G37*
G36*
X502880D02*
Y619720D01*
X511140D01*
X510668Y621481D01*
X509214Y623999D01*
X507159Y626054D01*
X504641Y627508D01*
X502880Y627980D01*
D02*
G37*
G36*
X497880D02*
X496119Y627508D01*
X493601Y626054D01*
X491546Y623999D01*
X490092Y621481D01*
X489620Y619720D01*
X497880D01*
Y627980D01*
D02*
G37*
G36*
X357700Y612926D02*
Y608290D01*
X362336D01*
X362226Y608700D01*
X361233Y610420D01*
X359830Y611824D01*
X358110Y612816D01*
X357700Y612926D01*
D02*
G37*
G36*
X352700D02*
X352290Y612816D01*
X350570Y611824D01*
X349166Y610420D01*
X348174Y608700D01*
X348064Y608290D01*
X352700D01*
Y612926D01*
D02*
G37*
G36*
X586070Y614720D02*
X577810D01*
Y606460D01*
X579571Y606932D01*
X582089Y608386D01*
X584144Y610441D01*
X585598Y612959D01*
X586070Y614720D01*
D02*
G37*
G36*
X572810D02*
X564550D01*
X565022Y612959D01*
X566476Y610441D01*
X568531Y608386D01*
X571049Y606932D01*
X572810Y606460D01*
Y614720D01*
D02*
G37*
G36*
X511140D02*
X502880D01*
Y606460D01*
X504641Y606932D01*
X507159Y608386D01*
X509214Y610441D01*
X510668Y612959D01*
X511140Y614720D01*
D02*
G37*
G36*
X497880D02*
X489620D01*
X490092Y612959D01*
X491546Y610441D01*
X493601Y608386D01*
X496119Y606932D01*
X497880Y606460D01*
Y614720D01*
D02*
G37*
G36*
X627756Y629720D02*
X624464D01*
X621285Y628868D01*
X618435Y627223D01*
X616107Y624895D01*
X614462Y622045D01*
X613610Y618866D01*
Y615574D01*
X614462Y612395D01*
X616107Y609545D01*
X618435Y607217D01*
X621285Y605572D01*
X624464Y604720D01*
X627756D01*
X630935Y605572D01*
X633785Y607217D01*
X636113Y609545D01*
X637758Y612395D01*
X638610Y615574D01*
Y618866D01*
X637758Y622045D01*
X636113Y624895D01*
X633785Y627223D01*
X630935Y628868D01*
X627756Y629720D01*
D02*
G37*
G36*
X362336Y603290D02*
X357700D01*
Y598654D01*
X358110Y598764D01*
X359830Y599757D01*
X361233Y601160D01*
X362226Y602880D01*
X362336Y603290D01*
D02*
G37*
G36*
X352700D02*
X348064D01*
X348174Y602880D01*
X349166Y601160D01*
X350570Y599757D01*
X352290Y598764D01*
X352700Y598654D01*
Y603290D01*
D02*
G37*
%LPD*%
D47*
X375531Y443354D02*
X449580Y369305D01*
Y363220D02*
Y369305D01*
X460287Y509270D02*
X465170Y504387D01*
X379730Y509270D02*
X460287D01*
X478249Y446770D02*
X482329Y450850D01*
X482600D01*
X470189Y446770D02*
X478249D01*
X465170Y451789D02*
Y504387D01*
Y451789D02*
X470189Y446770D01*
X473710Y455270D02*
Y499110D01*
X353060Y459740D02*
X359145D01*
X375531Y443354D02*
X375531D01*
X359145Y459740D02*
X375531Y443354D01*
X473710Y499110D02*
X492040Y517440D01*
X516672Y520482D02*
Y559852D01*
X513630Y517440D02*
X516672Y520482D01*
X492040Y517440D02*
X513630D01*
X516672Y559852D02*
X520700Y563880D01*
X556260D01*
X324706Y432847D02*
X368128D01*
X304800Y412941D02*
X324706Y432847D01*
X365760Y495300D02*
X379730Y509270D01*
D48*
X355200Y605790D02*
D03*
X305200D02*
D03*
D49*
X626110Y617220D02*
D03*
X575310D02*
D03*
X500380D02*
D03*
X449580D02*
D03*
D50*
X355256Y594360D02*
D03*
X369570D02*
D03*
Y605846D02*
D03*
D51*
X482600Y450850D02*
D03*
X473710Y455270D02*
D03*
X508000Y526463D02*
D03*
Y563880D02*
D03*
X497417Y526463D02*
D03*
Y538935D02*
D03*
X486833D02*
D03*
X476250D02*
D03*
X508000D02*
D03*
X497417Y551408D02*
D03*
X486833D02*
D03*
X476250D02*
D03*
X508000D02*
D03*
X486833Y563880D02*
D03*
X497417D02*
D03*
X476250D02*
D03*
Y526463D02*
D03*
X486833D02*
D03*
X353060Y459740D02*
D03*
X402590Y451485D02*
D03*
Y473075D02*
D03*
Y462280D02*
D03*
X414020Y473075D02*
D03*
Y451485D02*
D03*
Y462280D02*
D03*
X391160Y451485D02*
D03*
Y473075D02*
D03*
Y462280D02*
D03*
X516890Y476250D02*
D03*
Y506730D02*
D03*
Y496570D02*
D03*
Y486410D02*
D03*
X527050Y476250D02*
D03*
Y506730D02*
D03*
Y486410D02*
D03*
Y496570D02*
D03*
X496570Y506730D02*
D03*
Y486410D02*
D03*
Y476250D02*
D03*
Y496570D02*
D03*
X368128Y432847D02*
D03*
X449580Y363220D02*
D03*
X506730Y476250D02*
D03*
Y496570D02*
D03*
Y486410D02*
D03*
Y506730D02*
D03*
X304800Y412750D02*
D03*
X556260Y563880D02*
D03*
X365760Y495300D02*
D03*
D52*
X417430Y668020D02*
X494522D01*
X500380Y617220D02*
Y662162D01*
X494522Y668020D02*
X500380Y662162D01*
X355200Y605790D02*
X417430Y668020D01*
M02*
