G04*
G04 #@! TF.GenerationSoftware,Altium Limited,Altium Designer,21.6.1 (37)*
G04*
G04 Layer_Color=8388736*
%FSLAX44Y44*%
%MOMM*%
G71*
G04*
G04 #@! TF.SameCoordinates,468A8F93-C8C4-43A0-AE5F-35C49DAE4A20*
G04*
G04*
G04 #@! TF.FilePolarity,Negative*
G04*
G01*
G75*
%ADD28O,1.9832X0.5592*%
%ADD29R,1.9832X0.5592*%
%ADD30R,3.2032X3.3032*%
%ADD31R,1.5032X0.9032*%
%ADD32R,1.5032X1.1032*%
%ADD33R,1.8032X1.1032*%
%ADD34R,1.1032X1.5032*%
%ADD35R,0.6032X0.6032*%
%ADD36R,0.9032X1.5032*%
%ADD37R,1.5752X0.9132*%
%ADD38R,4.0532X4.7232*%
%ADD39R,3.5032X3.8032*%
%ADD40R,1.0032X2.8532*%
%ADD41C,1.2032*%
%ADD42C,1.9032*%
%ADD43C,1.1032*%
%ADD44C,0.7032*%
D28*
X372890Y442780D02*
D03*
Y455780D02*
D03*
Y449280D02*
D03*
Y475280D02*
D03*
Y462280D02*
D03*
Y468780D02*
D03*
X432290Y462280D02*
D03*
Y442780D02*
D03*
Y455780D02*
D03*
Y449280D02*
D03*
Y475280D02*
D03*
Y468780D02*
D03*
Y481780D02*
D03*
D29*
X372890D02*
D03*
D30*
X402590Y462280D02*
D03*
D31*
X304800Y427513D02*
D03*
Y446513D02*
D03*
X487680Y362650D02*
D03*
Y343650D02*
D03*
X468630Y362705D02*
D03*
Y343705D02*
D03*
D32*
X327409Y428650D02*
D03*
Y447650D02*
D03*
X347980Y428650D02*
D03*
Y447650D02*
D03*
X304800Y490270D02*
D03*
Y509270D02*
D03*
X506730Y363830D02*
D03*
Y344830D02*
D03*
D33*
X349250Y478530D02*
D03*
Y509530D02*
D03*
X326390Y478530D02*
D03*
Y509530D02*
D03*
D34*
X412090Y497840D02*
D03*
X393090D02*
D03*
X527710Y450850D02*
D03*
X546710D02*
D03*
D35*
X495230Y418074D02*
D03*
X518230D02*
D03*
Y450850D02*
D03*
X495230D02*
D03*
D36*
X457860Y420370D02*
D03*
X476860D02*
D03*
D37*
X531765Y497840D02*
D03*
Y485140D02*
D03*
X531495Y510540D02*
D03*
X531765Y472440D02*
D03*
X474075Y485140D02*
D03*
Y510540D02*
D03*
Y497840D02*
D03*
Y472440D02*
D03*
X531500Y551180D02*
D03*
Y538480D02*
D03*
Y563880D02*
D03*
Y525780D02*
D03*
X473810Y538480D02*
D03*
Y563880D02*
D03*
Y551180D02*
D03*
X474080Y525780D02*
D03*
D38*
X511545Y491490D02*
D03*
X494030Y544830D02*
D03*
D39*
X667670Y504190D02*
D03*
X592170D02*
D03*
D40*
X652780Y421640D02*
D03*
Y373380D02*
D03*
X581660Y421640D02*
D03*
Y373380D02*
D03*
D41*
X355200Y605790D02*
D03*
X305200D02*
D03*
D42*
X626110Y617220D02*
D03*
X575310D02*
D03*
X500380D02*
D03*
X449580D02*
D03*
D43*
X355256Y594360D02*
D03*
X369570D02*
D03*
Y605846D02*
D03*
D44*
X482600Y450850D02*
D03*
X473710Y455270D02*
D03*
X508000Y526463D02*
D03*
Y563880D02*
D03*
X497417Y526463D02*
D03*
Y538935D02*
D03*
X486833D02*
D03*
X476250D02*
D03*
X508000D02*
D03*
X497417Y551408D02*
D03*
X486833D02*
D03*
X476250D02*
D03*
X508000D02*
D03*
X486833Y563880D02*
D03*
X497417D02*
D03*
X476250D02*
D03*
Y526463D02*
D03*
X486833D02*
D03*
X353060Y459740D02*
D03*
X402590Y451485D02*
D03*
Y473075D02*
D03*
Y462280D02*
D03*
X414020Y473075D02*
D03*
Y451485D02*
D03*
Y462280D02*
D03*
X391160Y451485D02*
D03*
Y473075D02*
D03*
Y462280D02*
D03*
X516890Y476250D02*
D03*
Y506730D02*
D03*
Y496570D02*
D03*
Y486410D02*
D03*
X527050Y476250D02*
D03*
Y506730D02*
D03*
Y486410D02*
D03*
Y496570D02*
D03*
X496570Y506730D02*
D03*
Y486410D02*
D03*
Y476250D02*
D03*
Y496570D02*
D03*
X368128Y432847D02*
D03*
X449580Y363220D02*
D03*
X506730Y476250D02*
D03*
Y496570D02*
D03*
Y486410D02*
D03*
Y506730D02*
D03*
X304800Y412750D02*
D03*
X556260Y563880D02*
D03*
X365760Y495300D02*
D03*
M02*
