G04*
G04 #@! TF.GenerationSoftware,Altium Limited,Altium Designer,21.6.1 (37)*
G04*
G04 Layer_Color=65535*
%FSLAX44Y44*%
%MOMM*%
G71*
G04*
G04 #@! TF.SameCoordinates,468A8F93-C8C4-43A0-AE5F-35C49DAE4A20*
G04*
G04*
G04 #@! TF.FilePolarity,Positive*
G04*
G01*
G75*
%ADD10C,0.2540*%
%ADD11C,0.2800*%
%ADD12C,0.2000*%
%ADD13C,0.1000*%
%ADD14C,0.0800*%
D10*
X382084Y605790D02*
G03*
X382084Y605790I-51884J0D01*
G01*
X659130Y431800D02*
X687070D01*
Y377190D02*
Y431800D01*
X673100Y363220D02*
X687070Y377190D01*
X659130Y363220D02*
X673100D01*
X619760Y431800D02*
X646430D01*
X619760Y377190D02*
X633730Y363220D01*
X619760Y377190D02*
Y431800D01*
X633730Y363220D02*
X646430D01*
X588010Y431800D02*
X615950D01*
Y377190D02*
Y431800D01*
X601980Y363220D02*
X615950Y377190D01*
X588010Y363220D02*
X601980D01*
X548640Y431800D02*
X575310D01*
X548640Y377190D02*
X562610Y363220D01*
X548640Y377190D02*
Y431800D01*
X562610Y363220D02*
X575310D01*
X327660Y673892D02*
X325994Y675558D01*
X322662D01*
X320995Y673892D01*
Y667228D01*
X322662Y665562D01*
X325994D01*
X327660Y667228D01*
X330992Y665562D02*
X334324D01*
X332658D01*
Y675558D01*
X330992Y673892D01*
X292100Y618012D02*
X298764D01*
X295432Y621344D02*
Y614680D01*
X395925Y432988D02*
Y424658D01*
X397592Y422992D01*
X400924D01*
X402590Y424658D01*
Y432988D01*
X405922Y422992D02*
X409254D01*
X407588D01*
Y432988D01*
X405922Y431322D01*
X298941Y411412D02*
X308937D01*
Y406413D01*
X307271Y404747D01*
X303939D01*
X302273Y406413D01*
Y411412D01*
Y408079D02*
X298941Y404747D01*
Y401415D02*
Y398083D01*
Y399749D01*
X308937D01*
X307271Y401415D01*
X330562Y406136D02*
X332228Y407802D01*
Y411134D01*
X330562Y412801D01*
X323897D01*
X322231Y411134D01*
Y407802D01*
X323897Y406136D01*
X332228Y396139D02*
X330562Y399472D01*
X327229Y402804D01*
X323897D01*
X322231Y401138D01*
Y397805D01*
X323897Y396139D01*
X325563D01*
X327229Y397805D01*
Y402804D01*
X353852Y406136D02*
X355518Y407802D01*
Y411134D01*
X353852Y412801D01*
X347188D01*
X345522Y411134D01*
Y407802D01*
X347188Y406136D01*
X355518Y396139D02*
Y402804D01*
X350520D01*
X352186Y399472D01*
Y397805D01*
X350520Y396139D01*
X347188D01*
X345522Y397805D01*
Y401138D01*
X347188Y402804D01*
X350124Y534192D02*
X348458Y535858D01*
X345126D01*
X343459Y534192D01*
Y527528D01*
X345126Y525862D01*
X348458D01*
X350124Y527528D01*
X360121Y525862D02*
X353456D01*
X360121Y532526D01*
Y534192D01*
X358455Y535858D01*
X355122D01*
X353456Y534192D01*
X400924Y522762D02*
X399258Y524428D01*
X395925D01*
X394259Y522762D01*
Y516098D01*
X395925Y514432D01*
X399258D01*
X400924Y516098D01*
X404256Y522762D02*
X405922Y524428D01*
X409254D01*
X410921Y522762D01*
Y521096D01*
X409254Y519430D01*
X410921Y517764D01*
Y516098D01*
X409254Y514432D01*
X405922D01*
X404256Y516098D01*
Y517764D01*
X405922Y519430D01*
X404256Y521096D01*
Y522762D01*
X405922Y519430D02*
X409254D01*
X325994Y534192D02*
X324328Y535858D01*
X320995D01*
X319329Y534192D01*
Y527528D01*
X320995Y525862D01*
X324328D01*
X325994Y527528D01*
X329326Y534192D02*
X330992Y535858D01*
X334324D01*
X335991Y534192D01*
Y532526D01*
X334324Y530860D01*
X332658D01*
X334324D01*
X335991Y529194D01*
Y527528D01*
X334324Y525862D01*
X330992D01*
X329326Y527528D01*
X301864Y534192D02*
X300198Y535858D01*
X296866D01*
X295199Y534192D01*
Y527528D01*
X296866Y525862D01*
X300198D01*
X301864Y527528D01*
X310194Y525862D02*
Y535858D01*
X305196Y530860D01*
X311861D01*
X663732Y379730D02*
Y373065D01*
X667065Y376398D02*
X660400D01*
X592612Y379730D02*
Y373065D01*
X595945Y376398D02*
X589280D01*
X413857Y631190D02*
Y627858D01*
Y629524D01*
X403860D01*
Y631190D01*
Y627858D01*
Y622859D02*
X413857D01*
X403860Y616195D01*
X413857D01*
X675558Y626192D02*
Y629524D01*
X673892Y631190D01*
X667228D01*
X665562Y629524D01*
Y626192D01*
X667228Y624525D01*
X673892D01*
X675558Y626192D01*
Y621193D02*
X667228D01*
X665562Y619527D01*
Y616195D01*
X667228Y614529D01*
X675558D01*
Y611196D02*
Y604532D01*
Y607864D01*
X665562D01*
X568004Y673811D02*
X566338Y675477D01*
X563006D01*
X561340Y673811D01*
Y667146D01*
X563006Y665480D01*
X566338D01*
X568004Y667146D01*
Y670478D01*
X564672D01*
X571337Y665480D02*
Y675477D01*
X578001Y665480D01*
Y675477D01*
X581334D02*
Y665480D01*
X586332D01*
X587998Y667146D01*
Y673811D01*
X586332Y675477D01*
X581334D01*
X435610Y665480D02*
X438942D01*
X437276D01*
Y675477D01*
X435610Y673811D01*
X450605Y665480D02*
X443941D01*
X450605Y672144D01*
Y673811D01*
X448939Y675477D01*
X445607D01*
X443941Y673811D01*
X453937Y675477D02*
Y668812D01*
X457270Y665480D01*
X460602Y668812D01*
Y675477D01*
X493074Y673811D02*
X491408Y675477D01*
X488076D01*
X486410Y673811D01*
Y667146D01*
X488076Y665480D01*
X491408D01*
X493074Y667146D01*
Y670478D01*
X489742D01*
X496407Y665480D02*
Y675477D01*
X503071Y665480D01*
Y675477D01*
X506404D02*
Y665480D01*
X511402D01*
X513068Y667146D01*
Y673811D01*
X511402Y675477D01*
X506404D01*
X612140Y673811D02*
X613806Y675477D01*
X617138D01*
X618805Y673811D01*
Y672144D01*
X617138Y670478D01*
X615472D01*
X617138D01*
X618805Y668812D01*
Y667146D01*
X617138Y665480D01*
X613806D01*
X612140Y667146D01*
X622137Y665480D02*
Y667146D01*
X623803D01*
Y665480D01*
X622137D01*
X630467Y673811D02*
X632134Y675477D01*
X635466D01*
X637132Y673811D01*
Y672144D01*
X635466Y670478D01*
X633800D01*
X635466D01*
X637132Y668812D01*
Y667146D01*
X635466Y665480D01*
X632134D01*
X630467Y667146D01*
X640464Y675477D02*
Y668812D01*
X643796Y665480D01*
X647129Y668812D01*
Y675477D01*
X460299Y397592D02*
Y407588D01*
X465298D01*
X466964Y405922D01*
Y402590D01*
X465298Y400924D01*
X460299D01*
X463632D02*
X466964Y397592D01*
X476961D02*
X470296D01*
X476961Y404256D01*
Y405922D01*
X475294Y407588D01*
X471962D01*
X470296Y405922D01*
X482682Y390690D02*
X492678D01*
Y385692D01*
X491012Y384026D01*
X487680D01*
X486014Y385692D01*
Y390690D01*
Y387358D02*
X482682Y384026D01*
X491012Y380694D02*
X492678Y379027D01*
Y375695D01*
X491012Y374029D01*
X489346D01*
X487680Y375695D01*
Y377361D01*
Y375695D01*
X486014Y374029D01*
X484348D01*
X482682Y375695D01*
Y379027D01*
X484348Y380694D01*
X463632Y390746D02*
X473628D01*
Y385747D01*
X471962Y384081D01*
X468630D01*
X466964Y385747D01*
Y390746D01*
Y387413D02*
X463632Y384081D01*
Y375751D02*
X473628D01*
X468630Y380749D01*
Y374084D01*
X675558Y650636D02*
Y653968D01*
Y652302D01*
X667228D01*
X665562Y653968D01*
Y655635D01*
X667228Y657301D01*
X665562Y640639D02*
Y647304D01*
X672226Y640639D01*
X673892D01*
X675558Y642305D01*
Y645638D01*
X673892Y647304D01*
X549992Y498551D02*
X559988D01*
X556656Y495218D01*
X559988Y491886D01*
X549992D01*
Y481889D02*
Y488554D01*
X556656Y481889D01*
X558322D01*
X559988Y483555D01*
Y486888D01*
X558322Y488554D01*
X549992Y547685D02*
X559988D01*
X556656Y544352D01*
X559988Y541020D01*
X549992D01*
Y537688D02*
Y534356D01*
Y536022D01*
X559988D01*
X558322Y537688D01*
X621986Y571418D02*
Y561422D01*
X628650D01*
X631982D02*
X635314D01*
X633648D01*
Y571418D01*
X631982Y569752D01*
X413857Y650636D02*
Y653968D01*
Y652302D01*
X405526D01*
X403860Y653968D01*
Y655635D01*
X405526Y657301D01*
X403860Y647304D02*
Y643972D01*
Y645638D01*
X413857D01*
X412191Y647304D01*
X498786Y439842D02*
Y429845D01*
X503785D01*
X505451Y431511D01*
Y438176D01*
X503785Y439842D01*
X498786D01*
X508783Y429845D02*
X512115D01*
X510449D01*
Y439842D01*
X508783Y438176D01*
X499893Y407076D02*
Y397080D01*
X504892D01*
X506558Y398746D01*
Y405410D01*
X504892Y407076D01*
X499893D01*
X516554Y397080D02*
X509890D01*
X516554Y403744D01*
Y405410D01*
X514888Y407076D01*
X511556D01*
X509890Y405410D01*
X648615Y351312D02*
X646949Y352978D01*
X643616D01*
X641950Y351312D01*
Y344648D01*
X643616Y342982D01*
X646949D01*
X648615Y344648D01*
X651947Y342982D02*
X655279D01*
X653613D01*
Y352978D01*
X651947Y351312D01*
X660278Y342982D02*
X663610D01*
X661944D01*
Y352978D01*
X660278Y351312D01*
X575829D02*
X574162Y352978D01*
X570830D01*
X569164Y351312D01*
Y344648D01*
X570830Y342982D01*
X574162D01*
X575829Y344648D01*
X579161Y342982D02*
X582493D01*
X580827D01*
Y352978D01*
X579161Y351312D01*
X587491D02*
X589158Y352978D01*
X592490D01*
X594156Y351312D01*
Y344648D01*
X592490Y342982D01*
X589158D01*
X587491Y344648D01*
Y351312D01*
X512602Y385206D02*
X514268Y386872D01*
Y390205D01*
X512602Y391871D01*
X505938D01*
X504272Y390205D01*
Y386872D01*
X505938Y385206D01*
Y381874D02*
X504272Y380208D01*
Y376875D01*
X505938Y375209D01*
X512602D01*
X514268Y376875D01*
Y380208D01*
X512602Y381874D01*
X510936D01*
X509270Y380208D01*
Y375209D01*
X532567Y434499D02*
X530901Y436165D01*
X527569D01*
X525903Y434499D01*
Y427834D01*
X527569Y426168D01*
X530901D01*
X532567Y427834D01*
X535900Y436165D02*
X542564D01*
Y434499D01*
X535900Y427834D01*
Y426168D01*
D11*
X373380Y488950D02*
G03*
X373380Y488950I-1270J0D01*
G01*
D12*
X400965Y485030D02*
G03*
X404215Y485030I1625J0D01*
G01*
X384810Y439420D02*
X420370D01*
X384810D02*
Y485030D01*
X384920D01*
X420370Y439420D02*
Y484810D01*
X404215Y485030D02*
X420370D01*
X384920D02*
X400965D01*
X420370Y484810D02*
Y485030D01*
X656590Y576580D02*
Y657860D01*
X549910D02*
X656590D01*
X549910Y576580D02*
Y657860D01*
Y576580D02*
X656590D01*
X530860D02*
Y657860D01*
X424180Y576580D02*
X530860D01*
X424180Y657860D02*
X530860D01*
X424180Y576580D02*
Y657860D01*
D13*
X296679Y422347D02*
Y451734D01*
X312913D01*
X296679Y422347D02*
X312913D01*
Y451734D01*
X318519Y422347D02*
Y453996D01*
X336299D01*
X318519Y422347D02*
X336299D01*
Y453996D01*
X339090Y422347D02*
Y453996D01*
X356870D01*
X339090Y422347D02*
X356870D01*
Y453996D01*
X339090Y472440D02*
Y515620D01*
X359410Y472440D02*
Y515620D01*
X339090Y472440D02*
X359410D01*
X339090Y515620D02*
X359410D01*
X386787Y488950D02*
X418436D01*
X386787D02*
Y506730D01*
X418436D01*
Y488950D02*
Y506730D01*
X316230Y472440D02*
Y515620D01*
X336550D01*
X316230Y472440D02*
X336550D01*
Y515620D01*
X295910Y483924D02*
X313690D01*
X295910D02*
Y515573D01*
X313690D01*
Y483924D02*
Y515573D01*
X499110Y411724D02*
Y424424D01*
Y411724D02*
X514350D01*
Y424424D01*
X499110D02*
X514350D01*
X482026Y412248D02*
Y428483D01*
X452639D02*
X482026D01*
X452639Y412248D02*
Y428483D01*
Y412248D02*
X482026D01*
X495793Y338484D02*
Y367871D01*
X479558Y338484D02*
X495793D01*
X479558Y367871D02*
X495793D01*
X479558Y338484D02*
Y367871D01*
X476752Y338484D02*
Y367871D01*
X460517Y338484D02*
X476752D01*
X460517Y367871D02*
X476752D01*
X460517Y338484D02*
Y367871D01*
X540640Y466090D02*
Y516890D01*
X465455D02*
X540640D01*
X465455Y466090D02*
X540640D01*
X465455D02*
Y516890D01*
X540120Y519430D02*
Y570230D01*
X464935D02*
X540120D01*
X464935Y519430D02*
X540120D01*
X464935D02*
Y570230D01*
X689610Y452120D02*
Y556260D01*
X570230D02*
X689610D01*
X570230Y452120D02*
Y556260D01*
Y452120D02*
X689610D01*
X499110Y444500D02*
X514350D01*
Y457200D01*
X499110D02*
X514350D01*
X499110Y444500D02*
Y457200D01*
X515620Y338484D02*
Y370133D01*
X497840Y338484D02*
X515620D01*
X497840Y370133D02*
X515620D01*
X497840Y338484D02*
Y370133D01*
X553056Y441960D02*
Y459740D01*
X521407D02*
X553056D01*
X521407Y441960D02*
Y459740D01*
Y441960D02*
X553056D01*
D14*
X521500Y414452D02*
X526832D01*
X524166Y417118D02*
Y411787D01*
X515150Y437806D02*
X520482D01*
X517816Y440472D02*
Y435140D01*
M02*
