M48
;Layer_Color=9474304
;FILE_FORMAT=4:4
METRIC,LZ
;TYPE=PLATED
T1F00S00C0.3000
T2F00S00C0.6000
T3F00S00C0.6000
T4F00S00C1.3000
%
T01
X0044958Y0036322
X0047371Y0045527
X004826Y0045085
X0049657Y0047625
Y0048641
Y0049657
Y0050673
X0050673
X0051689
Y0049657
Y0048641
Y0047625
X0052705
Y0048641
Y0049657
Y0050673
X0050673Y0049657
Y0048641
Y0047625
X00508Y00526463
X00497417
X00486833
X0047625
Y00538935
X00486833
X00497417
X00508
Y00551408
X00497417
X00486833
X0047625
Y0056388
X00486833
X00497417
X00508
X0055626Y0056388
X0041402Y00473075
Y0046228
Y00451485
X0040259
Y0046228
Y00473075
X0039116
Y0046228
Y00451485
X00368128Y00432847
X0035306Y0045974
X0036576Y004953
X003048Y0041275
T02
X003052Y0060579
X003552
T03
X00355256Y0059436
X0036957
Y00605846
T04
X0044958Y0061722
X0050038
X0057531
X0062611
M30
